<?xml version="1.0" encoding="UTF-8"?>
<svg width="409px" height="29px" viewBox="0 0 409 29" version="1.1" xmlns="http://www.w3.org/2000/svg" xmlns:xlink="http://www.w3.org/1999/xlink">
    <!-- Generator: Sketch 51.2 (57519) - http://www.bohemiancoding.com/sketch -->
    <title>Group</title>
    <desc>Created with Sketch.</desc>
    <defs></defs>
    <g id="Symbols" stroke="none" stroke-width="1" fill="none" fill-rule="evenodd">
        <g id="Header-Desk-L-Copy" transform="translate(-195.000000, -81.000000)" fill="#FFFFFF" fill-rule="nonzero">
            <g id="Group" transform="translate(195.000000, 81.000000)">
                <path d="M5.58857143,28.0514286 L0,28.0514286 L9.36,2.08571429 L15.3942857,2.08571429 L24.7314286,28.0514286 L19.4285714,28.0514286 L17.8514286,23.5828571 L7.17714286,23.5828571 L5.58857143,28.0514286 Z M12.56,8.62285714 L12.4685714,8.62285714 L8.86857143,18.7942857 L16.1485714,18.7942857 L12.56,8.62285714 Z" id="Shape"></path>
                <path d="M32.2514286,8.88571429 L32.2514286,11.1714286 C33.2571429,9.32 35.1542857,8.38285714 37.9657143,8.38285714 C39.9272225,8.26411165 41.8403097,9.02181136 43.1885714,10.4514286 C44.5012134,12.0461712 45.1552937,14.0819963 45.0171429,16.1428571 L45.0171429,28.0514286 L39.8285714,28.0514286 L39.8285714,16.6228571 C39.8285714,14.1161905 38.7428571,12.8628571 36.5714286,12.8628571 C35.4871257,12.8042428 34.431209,13.2216011 33.68,14.0057143 C32.9611438,14.8586896 32.5970632,15.955022 32.6628571,17.0685714 L32.6628571,28.04 L27.4285714,28.04 L27.4285714,8.88571429 L32.2514286,8.88571429 Z" id="Shape"></path>
                <path d="M58.5828571,23.4342857 L58.5828571,27.9371429 C57.7789903,28.1054189 56.9580825,28.1783032 56.1371429,28.1542857 C52.2057143,28.1542857 50.2514286,26.2114286 50.2514286,22.3028571 L50.2514286,12.9771429 L47.6571429,12.9771429 L47.6571429,8.88571429 L50.2857143,8.88571429 L50.2857143,4.13142857 L55.4742857,4.13142857 L55.4742857,8.88571429 L58.6285714,8.88571429 L58.6285714,12.9771429 L55.44,12.9771429 L55.44,21.7542857 C55.44,23 56.0914286,23.6171429 57.3828571,23.6171429 L58.5828571,23.4342857 Z" id="Shape"></path>
                <path d="M77.5314286,25.5828571 C75.6265826,27.5396174 72.9800595,28.5949029 70.2514286,28.4857143 C67.5235454,28.5905497 64.8787274,27.5359441 62.9714286,25.5828571 C61.1233863,23.6672526 60.122694,21.0893375 60.1942857,18.4285714 C60.1416603,15.7948587 61.1411514,13.2488299 62.9714286,11.3542857 C64.8742777,9.39332869 67.5210613,8.33378424 70.2514286,8.44 C72.9825528,8.32938929 75.6310643,9.38962549 77.5314286,11.3542857 C79.3617057,13.2488299 80.3611968,15.7948587 80.3085714,18.4285714 C80.3801632,21.0893375 79.3794709,23.6672526 77.5314286,25.5828571 Z M64.8457143,0.257142857 L70.2171429,0.257142857 L72.5028571,6.50857143 L67.7714286,6.50857143 L64.8457143,0.257142857 Z M66.7657143,14.4742857 C65.8167666,15.5667982 65.3255606,16.9831088 65.3942857,18.4285714 C65.3141446,19.8860189 65.8062277,21.3171605 66.7657143,22.4171429 C67.6871031,23.3517407 68.9447288,23.8779171 70.2571429,23.8779171 C71.5695569,23.8779171 72.8271826,23.3517407 73.7485714,22.4171429 C74.708058,21.3171605 75.2001411,19.8860189 75.12,18.4285714 C75.1977083,16.9714631 74.7059311,15.541211 73.7485714,14.44 C72.8271826,13.5054021 71.5695569,12.9792258 70.2571429,12.9792258 C68.9447288,12.9792258 67.6871031,13.5054021 66.7657143,14.44 L66.7657143,14.4742857 Z" id="Shape"></path>
                <path d="M88.6514286,8.88571429 L88.6514286,11.1714286 C89.6457143,9.32 91.5542857,8.38285714 94.3657143,8.38285714 C96.3303596,8.26545689 98.2463926,9.02266644 99.6,10.4514286 C100.903419,12.050641 101.552693,14.0842148 101.417143,16.1428571 L101.417143,28.0514286 L96.2171429,28.0514286 L96.2171429,16.6228571 C96.2171429,14.1161905 95.1314286,12.8628571 92.96,12.8628571 C91.8790999,12.8045353 90.8268037,13.2221131 90.08,14.0057143 C89.3570316,14.8569754 88.9887991,15.9534901 89.0514286,17.0685714 L89.0514286,28.04 L83.8628571,28.04 L83.8628571,8.88571429 L88.6514286,8.88571429 Z" id="Shape"></path>
                <path d="M110.857143,5.51428571 C110.253921,6.11758531 109.423483,6.43730396 108.571429,6.39428571 C107.720294,6.43161133 106.892071,6.11274561 106.285714,5.51428571 C105.701529,4.92281365 105.387277,4.11650902 105.417143,3.28571429 C105.380944,2.43958836 105.702027,1.61720501 106.301962,1.01944418 C106.901896,0.421683356 107.72544,0.103587739 108.571429,0.142857143 C109.424967,0.104278434 110.255091,0.428026975 110.857143,1.03428571 C111.450918,1.64365576 111.768973,2.46977173 111.737143,3.32 C111.753197,4.14044258 111.435636,4.93228152 110.857143,5.51428571 Z M105.988571,28.0514286 L105.988571,8.88571429 L111.177143,8.88571429 L111.177143,28.0514286 L105.988571,28.0514286 Z" id="Shape"></path>
                <path d="M120.388571,15.2057143 L115.417143,14.2914286 C115.717466,12.6226427 116.625427,11.1243043 117.965714,10.0857143 C119.714082,8.87575967 121.821561,8.29549776 123.942857,8.44 C126.215809,8.26237525 128.474368,8.92976935 130.285714,10.3142857 C131.748664,11.6579324 132.529315,13.588574 132.411429,15.5714286 L132.411429,23 C132.411429,23.8342857 132.754286,24.2457143 133.428571,24.2457143 L133.977143,24.2457143 L133.977143,28.1885714 C133.5387,28.3111537 133.083185,28.3613375 132.628571,28.3371429 C130.434286,28.3371429 128.982857,27.5485714 128.274286,25.96 C126.539339,27.7251991 124.128365,28.6579419 121.657143,28.52 C119.841333,28.6532989 118.043014,28.0892806 116.628571,26.9428571 C115.496375,25.9035738 114.874418,24.421731 114.925714,22.8857143 C114.925714,19.487619 117.420952,17.3771429 122.411429,16.5542857 L127.474286,15.72 L127.474286,15.5714286 C127.474286,13.6971429 126.331429,12.76 124.045714,12.76 C121.817143,12.7142857 120.64,13.5485714 120.388571,15.2057143 Z M127.417143,19.4342857 L122.845714,20.2914286 C122.034021,20.3931158 121.254121,20.6699804 120.56,21.1028571 C120.111705,21.4188429 119.850288,21.9373922 119.862857,22.4857143 C119.862857,23.8 120.822857,24.4628571 122.742857,24.4628571 C123.992236,24.5531272 125.226088,24.1418433 126.171429,23.32 C127.00142,22.4814073 127.440984,21.332736 127.382857,20.1542857 L127.417143,19.4342857 Z" id="Shape"></path>
                <path d="M136,20.7142857 L141.154286,19.6628571 C141.236131,20.8143105 141.750564,21.8921695 142.594286,22.68 C143.622654,23.505694 144.924305,23.9137353 146.24,23.8228571 C147.411478,23.8928853 148.578246,23.6230206 149.6,23.0457143 C150.399497,22.593065 150.883244,21.7355137 150.857143,20.8171429 C150.864181,20.0528118 150.475004,19.3393207 149.828571,18.9314286 C149.065838,18.3953654 148.209016,18.0076631 147.302857,17.7885714 L144,16.9885714 C142.859871,16.7065217 141.746954,16.324076 140.674286,15.8457143 C139.611135,15.3621664 138.721685,14.5644538 138.125714,13.56 C137.410581,12.3474132 137.057622,10.9554069 137.108571,9.54857143 C137.068722,7.35769461 138.007148,5.26299238 139.668571,3.83428571 C141.586051,2.23813306 144.034039,1.42213676 146.525714,1.54857143 C148.92655,1.43656954 151.285062,2.20918535 153.154286,3.72 C154.816372,5.12996794 155.878898,7.12016095 156.125714,9.28571429 L150.971429,10.2342857 C150.966411,9.14553658 150.511416,8.10732233 149.714286,7.36571429 C148.814963,6.60411891 147.656265,6.21925112 146.48,6.29142857 C145.421501,6.24113735 144.373991,6.52500454 143.485714,7.10285714 C142.769358,7.56144578 142.337993,8.35515765 142.342857,9.20571429 C142.327913,9.86555406 142.613885,10.496374 143.12,10.92 C143.701221,11.387669 144.375134,11.7265732 145.097143,11.9142857 L147.771429,12.6685714 L150.754286,13.5142857 C151.72012,13.7795111 152.640801,14.1878469 153.485714,14.7257143 C154.33919,15.2981883 155.025413,16.0869506 155.474286,17.0114286 C156.012409,18.1333823 156.274923,19.3675888 156.24,20.6114286 C156.282748,22.8642228 155.225115,24.9965458 153.405714,26.3257143 C151.247528,27.8832319 148.624067,28.6610016 145.965714,28.5314286 C142.849524,28.5314286 140.48,27.7695238 138.857143,26.2457143 C137.264258,24.8103426 136.248596,22.8440211 136,20.7142857 Z" id="Shape"></path>
                <path d="M164.857143,15.2057143 L159.885714,14.2914286 C160.186037,12.6226427 161.093998,11.1243043 162.434286,10.0857143 C164.183429,8.87742147 166.290316,8.29732251 168.411429,8.44 C170.665432,8.27450346 172.901867,8.94136755 174.697143,10.3142857 C176.160093,11.6579324 176.940744,13.588574 176.822857,15.5714286 L176.822857,23 C176.822857,23.8342857 177.165714,24.2457143 177.851429,24.2457143 L178.4,24.2457143 L178.4,28.1885714 C177.957622,28.3109915 177.498376,28.3611612 177.04,28.3371429 C174.845714,28.3371429 173.394286,27.5485714 172.685714,25.96 C170.953288,27.7290298 168.540507,28.6624718 166.068571,28.52 C164.252762,28.6532989 162.454442,28.0892806 161.04,26.9428571 C159.907804,25.9035738 159.285847,24.421731 159.337143,22.8857143 C159.337143,19.487619 161.832381,17.3771429 166.822857,16.5542857 L171.885714,15.72 L171.885714,15.5714286 C171.885714,13.6971429 170.742857,12.76 168.457143,12.76 C166.285714,12.7142857 165.108571,13.5485714 164.857143,15.2057143 Z M171.885714,19.4342857 L167.314286,20.2914286 C166.502593,20.3931158 165.722692,20.6699804 165.028571,21.1028571 C164.580277,21.4188429 164.318859,21.9373922 164.331429,22.4857143 C164.331429,23.8 165.291429,24.4628571 167.211429,24.4628571 C168.461129,24.5556986 169.695945,24.1440931 170.64,23.32 C171.469992,22.4814073 171.909555,21.332736 171.851429,20.1542857 L171.885714,19.4342857 Z" id="Shape"></path>
                <path d="M180.182857,22.4514286 L185.337143,21.72 C185.369917,22.4335583 185.686794,23.1043497 186.217143,23.5828571 C186.877377,24.114399 187.714622,24.3757828 188.56,24.3142857 C189.331188,24.3574591 190.100068,24.1957971 190.788571,23.8457143 C191.26211,23.5947757 191.557119,23.1016255 191.554286,22.5657143 C191.554286,21.9714286 191.188571,21.5485714 190.411429,21.2628571 C189.560585,20.9488515 188.679789,20.7229083 187.782857,20.5885714 C186.741642,20.416201 185.711331,20.1834272 184.697143,19.8914286 C183.662429,19.59659 182.739233,18.9996959 182.045714,18.1771429 C181.25594,17.2138019 180.849042,15.9931088 180.902857,14.7485714 C180.883045,13.0035105 181.661759,11.345061 183.017143,10.2457143 C184.586786,8.97688832 186.566555,8.32645055 188.582857,8.41714286 C190.563029,8.28322635 192.522285,8.89014761 194.08,10.12 C195.289541,11.1614508 196.097886,12.5922225 196.365714,14.1657143 L191.462857,15.08 C191.437495,14.3987909 191.146194,13.7546455 190.651429,13.2857143 C190.060169,12.7943538 189.304702,12.5452539 188.537143,12.5885714 C187.851681,12.549412 187.172539,12.7382857 186.605714,13.1257143 C186.168065,13.4248449 185.906987,13.9213219 185.908571,14.4514286 C185.921107,14.9551913 186.230626,15.4037697 186.697143,15.5942857 C187.308463,15.9018645 187.970703,16.0955019 188.651429,16.1657143 C189.501802,16.2721882 190.345166,16.4286496 191.177143,16.6342857 C192.040628,16.8470978 192.885329,17.1299391 193.702857,17.48 C194.511769,17.853 195.191877,18.4575405 195.657143,19.2171429 C196.211895,20.1482194 196.485739,21.2197823 196.445714,22.3028571 C196.468563,24.0385114 195.656542,25.6795589 194.262857,26.7142857 C192.538768,27.95574 190.441298,28.5688468 188.32,28.4514286 C183.43619,28.4742857 180.72381,26.4742857 180.182857,22.4514286 Z" id="Shape"></path>
                <path d="M208.971429,23.4342857 L208.971429,27.9371429 C208.1636,28.1047473 207.338988,28.1776199 206.514286,28.1542857 C202.594286,28.1542857 200.628571,26.2114286 200.628571,22.3028571 L200.628571,12.9771429 L198.034286,12.9771429 L198.034286,8.88571429 L200.628571,8.88571429 L200.628571,4.13142857 L205.817143,4.13142857 L205.817143,8.88571429 L209.005714,8.88571429 L209.005714,12.9771429 L205.817143,12.9771429 L205.817143,21.7542857 C205.817143,23 206.468571,23.6171429 207.76,23.6171429 L208.971429,23.4342857 Z" id="Shape"></path>
                <path d="M223.005714,8.73714286 L223.005714,13.6057143 C222.671842,13.530682 222.33077,13.4923593 221.988571,13.4914286 C220.727369,13.4037739 219.486178,13.842328 218.56,14.7028571 C217.707297,15.7746436 217.298243,17.1327049 217.417143,18.4971429 L217.417143,28.0514286 L212.217143,28.0514286 L212.217143,8.88571429 L217.005714,8.88571429 L217.005714,11.3657143 C218.184153,9.54922918 220.264797,8.52646527 222.422857,8.70285714 L223.005714,8.73714286 Z" id="Shape"></path>
                <path d="M237.417143,21.7885714 L242.217143,22.9314286 C241.549155,24.6037143 240.394574,26.036988 238.902857,27.0457143 C237.285013,28.078074 235.39236,28.5960633 233.474286,28.5314286 C230.862733,28.6304603 228.333638,27.6071752 226.525714,25.72 C224.68037,23.7518496 223.704251,21.1241544 223.817143,18.4285714 C223.734636,15.7856404 224.709495,13.2189234 226.525714,11.2971429 C228.30409,9.41726338 230.795802,8.37904996 233.382857,8.44 C235.969927,8.35402545 238.46862,9.38681864 240.24,11.2742857 C242.041567,13.2136274 243.010046,15.7825606 242.937143,18.4285714 L242.868571,19.96 L228.971429,19.96 C229.053624,21.1227802 229.576912,22.2102379 230.434286,23 C231.327276,23.7305756 232.458912,24.1050741 233.611429,24.0514286 C235.233387,24.1886365 236.763037,23.2791149 237.417143,21.7885714 Z M233.394286,12.6457143 C232.343805,12.6028992 231.314394,12.9487487 230.502857,13.6171429 C229.728172,14.3090911 229.212231,15.2442341 229.04,16.2685714 L237.714286,16.2685714 C237.56254,15.2514755 237.056626,14.3205928 236.285714,13.64 C235.483024,12.9500673 234.452367,12.5834304 233.394286,12.6114286 L233.394286,12.6457143 Z" id="Shape"></path>
                <polygon id="Shape" points="252.262857 8.88571429 257.142857 8.88571429 257.142857 16.0171429 264.274286 16.0171429 264.274286 20.92 257.142857 20.92 257.142857 28.0514286 252.24 28.0514286 252.24 20.92 245.108571 20.92 245.108571 16.0171429 252.24 16.0171429"></polygon>
                <path d="M273.44,18.2114286 L273.44,28.0514286 L268.102857,28.0514286 L268.102857,2.08571429 L279.222857,2.08571429 C282.194286,2.08571429 284.411429,2.84761905 285.874286,4.37142857 C287.368794,5.94373638 288.160725,8.05555112 288.068571,10.2228571 C288.150106,12.3956197 287.321695,14.5039261 285.782857,16.04 C283.983361,17.6607079 281.605074,18.4850708 279.188571,18.3257143 L273.44,18.2114286 Z M273.44,13.3085714 L279.222857,13.3085714 C280.175751,13.3797556 281.118817,13.0763345 281.851429,12.4628571 C282.452288,11.8580519 282.771575,11.0287356 282.731429,10.1771429 C282.763259,9.32691458 282.445204,8.50079861 281.851429,7.89142857 C281.127321,7.2608551 280.180109,6.9478634 279.222857,7.02285714 L273.44,7.02285714 L273.44,13.3085714 Z" id="Shape"></path>
                <path d="M294.102857,15.2057143 L289.131429,14.2914286 C289.428818,12.6243356 290.332557,11.1262454 291.668571,10.0857143 C293.422007,8.87740162 295.532471,8.29742679 297.657143,8.44 C299.930095,8.26237525 302.188654,8.92976935 304,10.3142857 C305.46295,11.6579324 306.243601,13.588574 306.125714,15.5714286 L306.125714,23 C306.125714,23.8342857 306.457143,24.2457143 307.142857,24.2457143 L307.691429,24.2457143 L307.691429,28.1885714 C307.252985,28.3111537 306.797471,28.3613375 306.342857,28.3371429 C304.148571,28.3371429 302.697143,27.5485714 301.988571,25.96 C300.253625,27.7251991 297.842651,28.6579419 295.371429,28.52 C293.555619,28.6532989 291.757299,28.0892806 290.342857,26.9428571 C289.210661,25.9035738 288.588704,24.421731 288.64,22.8857143 C288.64,19.487619 291.135238,17.3771429 296.125714,16.5542857 L301.188571,15.72 L301.188571,15.5714286 C301.188571,13.6971429 300.045714,12.76 297.76,12.76 C295.531429,12.7142857 294.354286,13.5485714 294.102857,15.2057143 Z M301.131429,19.4342857 L296.56,20.2914286 C295.749302,20.3972866 294.970264,20.6738449 294.274286,21.1028571 C293.830637,21.4228296 293.570542,21.9387564 293.577143,22.4857143 C293.577143,23.8 294.548571,24.4628571 296.468571,24.4628571 C297.71795,24.5531272 298.951802,24.1418433 299.897143,23.32 C300.72353,22.4790867 301.162465,21.3320573 301.108571,20.1542857 L301.131429,19.4342857 Z" id="Shape"></path>
                <path d="M321.714286,8.73714286 L321.714286,13.6057143 C321.380309,13.5313023 321.039305,13.4929872 320.697143,13.4914286 C319.43594,13.4037739 318.194749,13.842328 317.268571,14.7028571 C316.415869,15.7746436 316.006814,17.1327049 316.125714,18.4971429 L316.125714,28.0514286 L310.857143,28.0514286 L310.857143,8.88571429 L315.645714,8.88571429 L315.645714,11.3657143 C316.838063,9.5223353 318.957254,8.49578352 321.142857,8.70285714 L321.714286,8.73714286 Z" id="Shape"></path>
                <path d="M333.531429,23.4342857 L333.531429,27.9371429 C332.723692,28.1053689 331.899007,28.178248 331.074286,28.1542857 C327.154286,28.1542857 325.188571,26.2114286 325.188571,22.3028571 L325.188571,12.9771429 L322.594286,12.9771429 L322.594286,8.88571429 L325.188571,8.88571429 L325.188571,4.13142857 L330.388571,4.13142857 L330.388571,8.88571429 L333.565714,8.88571429 L333.565714,12.9771429 L330.388571,12.9771429 L330.388571,21.7542857 C330.388571,23 331.028571,23.6171429 332.32,23.6171429 L333.531429,23.4342857 Z" id="Shape"></path>
                <path d="M341.542857,8.88571429 L341.542857,11.1714286 C342.537143,9.32 344.434286,8.38285714 347.257143,8.38285714 C349.218907,8.2625049 351.132652,9.02046493 352.48,10.4514286 C353.784449,12.0495458 354.430243,14.0850241 354.285714,16.1428571 L354.285714,28.0514286 L349.097143,28.0514286 L349.097143,16.6228571 C349.097143,14.1161905 348.011429,12.8628571 345.84,12.8628571 C344.755697,12.8042428 343.69978,13.2216011 342.948571,14.0057143 C342.23382,14.8609827 341.870296,15.9556402 341.931429,17.0685714 L341.931429,28.04 L336.731429,28.04 L336.731429,8.88571429 L341.542857,8.88571429 Z" id="Shape"></path>
                <path d="M371.268571,21.7885714 L376.057143,22.9314286 C375.397181,24.6050717 374.245651,26.0395031 372.754286,27.0457143 C371.132904,28.0796449 369.236135,28.5976702 367.314286,28.5314286 C364.704793,28.6187674 362.180288,27.5973396 360.365714,25.72 C358.544475,23.7406264 357.589868,21.1154568 357.714286,18.4285714 C357.633768,15.7881021 358.603723,13.2234765 360.411429,11.2971429 C362.203223,9.40223103 364.718946,8.36267624 367.325714,8.44 C369.913601,8.34950755 372.414088,9.38304228 374.182857,11.2742857 C375.955473,13.2253941 376.891177,15.794475 376.788571,18.4285714 L376.72,19.96 L362.822857,19.96 C362.905053,21.1227802 363.42834,22.2102379 364.285714,23 C365.178704,23.7305756 366.310341,24.1050741 367.462857,24.0514286 C369.084815,24.1886365 370.614465,23.2791149 371.268571,21.7885714 Z M367.245714,12.6457143 C366.195234,12.6028992 365.165823,12.9487487 364.354286,13.6171429 C363.5796,14.3090911 363.063659,15.2442341 362.891429,16.2685714 L371.6,16.2685714 C371.448254,15.2514755 370.94234,14.3205928 370.171429,13.64 C369.359918,12.9419757 368.315502,12.5747983 367.245714,12.6114286 L367.245714,12.6457143 Z" id="Shape"></path>
                <path d="M391.131429,8.73714286 L391.131429,13.6057143 C390.793692,13.5306616 390.448831,13.4923437 390.102857,13.4914286 C388.841654,13.4037739 387.600463,13.842328 386.674286,14.7028571 C385.821583,15.7746436 385.412528,17.1327049 385.531429,18.4971429 L385.531429,28.0514286 L380.342857,28.0514286 L380.342857,8.88571429 L385.142857,8.88571429 L385.142857,11.3657143 C386.31756,9.55108774 388.39397,8.52824717 390.548571,8.70285714 L391.131429,8.73714286 Z" id="Shape"></path>
                <path d="M392.297143,22.4514286 L397.451429,21.72 C397.479054,22.4348279 397.796829,23.1075198 398.331429,23.5828571 C398.976796,24.1006953 399.791038,24.3612525 400.617143,24.3142857 C401.40741,24.3677803 402.197382,24.205836 402.902857,23.8457143 C403.376396,23.5947757 403.671405,23.1016255 403.668571,22.5657143 C403.668571,21.9714286 403.302857,21.5485714 402.525714,21.2628571 C401.674424,20.9502865 400.793776,20.7243812 399.897143,20.5885714 C398.852404,20.4149743 397.81836,20.182219 396.8,19.8914286 C395.766723,19.5934294 394.844383,18.9970889 394.148571,18.1771429 C393.358797,17.2138019 392.951899,15.9931088 393.005714,14.7485714 C392.988683,13.0015838 393.771768,11.3427916 395.131429,10.2457143 C396.697565,8.97860499 398.673144,8.3282084 400.685714,8.41714286 C402.669734,8.28033911 404.633581,8.88742039 406.194286,10.12 C407.403826,11.1614508 408.212172,12.5922225 408.48,14.1657143 L403.577143,15.08 C403.552487,14.3962517 403.256356,13.7505209 402.754286,13.2857143 C402.16824,12.7930336 401.415731,12.5435603 400.651429,12.5885714 C399.965967,12.549412 399.286825,12.7382857 398.72,13.1257143 C398.282351,13.4248449 398.021273,13.9213219 398.022857,14.4514286 C398.035393,14.9551913 398.344912,15.4037697 398.811429,15.5942857 C399.422178,15.9033118 400.08469,16.0970289 400.765714,16.1657143 C401.616087,16.2721882 402.459452,16.4286496 403.291429,16.6342857 C404.151711,16.845342 404.992759,17.12824 405.805714,17.48 C406.620377,17.8487474 407.305287,18.4540163 407.771429,19.2171429 C408.317414,20.1513854 408.586912,21.2214509 408.548571,22.3028571 C408.575978,24.0368942 407.768003,25.6783592 406.377143,26.7142857 C404.653054,27.95574 402.555583,28.5688468 400.434286,28.4514286 C395.573333,28.4742857 392.860952,26.4742857 392.297143,22.4514286 Z" id="Shape"></path>
            </g>
        </g>
    </g>
</svg>